<?xml version="1.0" encoding="UTF-8"?>
<svg xmlns="http://www.w3.org/2000/svg" xmlns:xlink="http://www.w3.org/1999/xlink" viewBox="0 0 48 48" width="48px" height="48px">
<g id="surface252325">
<path style=" stroke:none;fill-rule:nonzero;fill:rgb(0%,0%,0%);fill-opacity:1;" d="M 15.359375 2.878906 C 8.476562 2.878906 2.878906 8.476562 2.878906 15.359375 L 2.878906 32.640625 C 2.878906 39.523438 8.476562 45.121094 15.359375 45.121094 L 32.640625 45.121094 C 39.523438 45.121094 45.121094 39.523438 45.121094 32.640625 L 45.121094 15.359375 C 45.121094 8.476562 39.523438 2.878906 32.640625 2.878906 Z M 35.519531 10.558594 C 36.574219 10.558594 37.441406 11.425781 37.441406 12.480469 C 37.441406 13.535156 36.574219 14.398438 35.519531 14.398438 C 34.464844 14.398438 33.601562 13.535156 33.601562 12.480469 C 33.601562 11.425781 34.464844 10.558594 35.519531 10.558594 Z M 24 13.441406 C 29.828125 13.441406 34.558594 18.171875 34.558594 24 C 34.558594 29.828125 29.828125 34.558594 24 34.558594 C 18.171875 34.558594 13.441406 29.828125 13.441406 24 C 13.441406 18.171875 18.171875 13.441406 24 13.441406 Z M 24 15.359375 C 19.238281 15.359375 15.359375 19.238281 15.359375 24 C 15.359375 28.761719 19.238281 32.640625 24 32.640625 C 28.761719 32.640625 32.640625 28.761719 32.640625 24 C 32.640625 19.238281 28.761719 15.359375 24 15.359375 Z M 24 15.359375 "/>
</g>
</svg>
